<svg width="1440" height="637" viewBox="0 0 1440 637" fill="none" xmlns="http://www.w3.org/2000/svg" style="">
<path width="1439" height="636" fill="white" d="M0.5 0.5 L1439.5 0.5 L1439.5 636.5 L0.5 636.5 Z" class="IPwUpwQC_0"></path>
<path d="M117 146.196C176.06 159.16 160.686 171.044 143.043 209.857C120.72 258.968 148.714 264.593 182.315 229.7C201.38 209.901 217.093 184.155 224.48 157.771C226.388 150.956 228.614 100.502 228.614 120.153C228.614 182.623 224.771 243.995 220.76 306.176C218.917 334.733 212.206 388.811 191.409 410.763C178.748 424.128 150.056 390.941 140.976 384.306C103.49 356.912 204.66 311.816 220.76 298.735C224.54 295.663 250.26 261.856 250.937 272.692C251.979 289.357 250.937 306.44 250.937 323.125C250.937 362.562 288.142 341.959 288.142 317.338" stroke="url(#paint0_linear_21:9)" stroke-width="3" stroke-linecap="round" class="IPwUpwQC_1"></path>
<path d="M250.937 213.164L288.142 220.605" stroke="url(#paint1_linear_21:9)" stroke-width="3" stroke-linecap="round" class="IPwUpwQC_2"></path>
<path d="M310.464 339.66C385.873 298.94 421.479 223.474 429.106 139.582C431.643 111.672 400.07 97.19 381.567 120.979C353.447 157.134 343.687 364.899 415.051 302.456C436.655 283.552 462.551 268.036 473.752 240.034C482.689 217.692 436.772 294.864 455.563 309.897C480.512 329.856 502.206 260.36 515.09 247.475C530.742 231.823 520.016 300.988 501.035 312.377C475.886 327.466 564.998 221.081 563.456 250.369C562.253 273.227 541.777 318.861 587.433 308.243C607.102 303.669 689.038 237.519 636.212 235.487C595.313 233.914 576.491 304.041 589.086 300.802C622.165 292.296 651.225 263.116 671.763 237.141C689.191 215.1 668.515 224.188 660.189 237.141C606.841 320.125 655.915 439.535 594.874 522.377C570.089 556.013 528.76 420.848 566.763 384.306C595.544 356.633 628.863 352.377 665.976 360.33C677.281 362.752 679.824 340.282 682.511 332.219" stroke="url(#paint2_linear_21:9)" stroke-width="3" stroke-linecap="round" class="IPwUpwQC_3"></path>
<path d="M489.047 161.078C515.848 161.078 546.16 168.32 556.015 138.755" stroke="url(#paint3_linear_21:9)" stroke-width="3" stroke-linecap="round" class="IPwUpwQC_4"></path>
<path d="M935.503 161.078C835.813 143.632 786.16 370.735 899.952 345.448C958.167 332.511 1055.2 172.267 1002.47 116.432C972.998 85.2242 972.832 202.039 972.708 213.164C972.302 249.732 971.527 285.135 966.921 321.471C966.119 327.793 954.122 369.856 959.48 345.448C962.146 333.303 996.243 256.793 1015.7 261.117C1019.59 261.982 1005.23 349.031 1021.07 364.877C1047.93 391.737 1090.38 301.018 1095.07 284.267C1103.52 254.082 1087.92 226.138 1061.59 259.05C1044.49 280.416 1009.57 359.33 1069.85 353.302C1113.12 348.976 1130.09 293.233 1147.16 261.53C1170.24 218.67 1167.88 272.95 1162.45 297.908C1151.39 348.813 1176.62 285.875 1188.5 269.385C1239.42 198.656 1218.26 282.083 1218.26 323.952C1218.26 423.461 1313.32 227.365 1322.43 205.723" stroke="url(#paint4_linear_21:9)" stroke-width="3" stroke-linecap="round" class="IPwUpwQC_5"></path>
<path width="1439" height="636" stroke="black" d="M0.5 0.5 L1439.5 0.5 L1439.5 636.5 L0.5 636.5 Z" class="IPwUpwQC_6"></path>
<defs>
<linearGradient id="paint0_linear_21:9" x1="202.571" y1="115.639" x2="202.571" y2="413.905" gradientUnits="userSpaceOnUse">
<stop stop-color="#CC9900"></stop>
<stop offset="1" stop-color="#CC9900" stop-opacity="0.3"></stop>
</linearGradient>
<linearGradient id="paint1_linear_21:9" x1="269.539" y1="213.164" x2="269.539" y2="220.605" gradientUnits="userSpaceOnUse">
<stop stop-color="#CC9900"></stop>
<stop offset="1" stop-color="#CC9900" stop-opacity="0.3"></stop>
</linearGradient>
<linearGradient id="paint2_linear_21:9" x1="496.487" y1="109" x2="496.487" y2="527.706" gradientUnits="userSpaceOnUse">
<stop stop-color="#CC9900"></stop>
<stop offset="1" stop-color="#CC9900" stop-opacity="0.3"></stop>
</linearGradient>
<linearGradient id="paint3_linear_21:9" x1="522.531" y1="138.755" x2="522.531" y2="161.861" gradientUnits="userSpaceOnUse">
<stop stop-color="#CC9900"></stop>
<stop offset="1" stop-color="#CC9900" stop-opacity="0.3"></stop>
</linearGradient>
<linearGradient id="paint4_linear_21:9" x1="1078.51" y1="111.15" x2="1078.51" y2="369.814" gradientUnits="userSpaceOnUse">
<stop stop-color="#CC9900"></stop>
<stop offset="1" stop-color="#CC9900" stop-opacity="0.3"></stop>
</linearGradient>
</defs>
<style data-made-with="vivus-instant">.IPwUpwQC_0{stroke-dasharray:4150 4152;stroke-dashoffset:4151;animation:IPwUpwQC_draw 2000ms linear 0ms forwards;}.IPwUpwQC_1{stroke-dasharray:973 975;stroke-dashoffset:974;animation:IPwUpwQC_draw 2000ms linear 166ms forwards;}.IPwUpwQC_2{stroke-dasharray:38 40;stroke-dashoffset:39;animation:IPwUpwQC_draw 2000ms linear 333ms forwards;}.IPwUpwQC_3{stroke-dasharray:2048 2050;stroke-dashoffset:2049;animation:IPwUpwQC_draw 2000ms linear 500ms forwards;}.IPwUpwQC_4{stroke-dasharray:78 80;stroke-dashoffset:79;animation:IPwUpwQC_draw 2000ms linear 666ms forwards;}.IPwUpwQC_5{stroke-dasharray:1973 1975;stroke-dashoffset:1974;animation:IPwUpwQC_draw 2000ms linear 833ms forwards;}.IPwUpwQC_6{stroke-dasharray:4150 4152;stroke-dashoffset:4151;animation:IPwUpwQC_draw 2000ms linear 1000ms forwards;}@keyframes IPwUpwQC_draw{100%{stroke-dashoffset:0;}}@keyframes IPwUpwQC_fade{0%{stroke-opacity:1;}94.44444444444444%{stroke-opacity:1;}100%{stroke-opacity:0;}}</style></svg>
